<svg width="1275" height="261" viewBox="0 0 1273 261" fill="none" xmlns="http://www.w3.org/2000/svg">
<path fill-rule="evenodd" clip-rule="evenodd" d="M0 48.0889L42.4333 52.0852C84.8667 56.0815 169.733 64.0741 254.6 72.0667C339.467 80.0593 424.333 88.0519 509.2 80.0593C594.067 72.0667 678.933 48.0889 763.8 28.1074C848.667 8.12596 933.533 -7.85923 1018.4 4.12966C1103.27 16.1185 1188.13 56.0815 1230.57 76.063L1273 96.0445V144H1230.57C1188.13 144 1103.27 144 1018.4 144C933.533 144 848.667 144 763.8 144C678.933 144 594.067 144 509.2 144C424.333 144 339.467 144 254.6 144C169.733 144 84.8667 144 42.4333 144H0V48.0889Z" fill="#FFDFBF"/>
<path fill-rule="evenodd" clip-rule="evenodd" d="M0 116L71.0758 91.8333C141.091 67.6667 283.242 19.3333 424.333 9.66667C565.424 0 707.576 29 848.667 33.8333C989.757 38.6667 1131.91 19.3333 1201.92 9.66667L1273 0V261H1201.92C1131.91 261 989.757 261 848.667 261C707.576 261 565.424 261 424.333 261C283.242 261 141.091 261 71.0758 261H0V116Z" fill="#FF9023"/>
</svg>
