<svg width="1275" height="176" viewBox="0 0 1275 176" fill="none" xmlns="http://www.w3.org/2000/svg">
<path fill-rule="evenodd" clip-rule="evenodd" d="M1273 127.911L1230.57 123.915C1188.13 119.918 1103.27 111.926 1018.4 103.933C933.533 95.9407 848.667 87.9481 763.8 95.9407C678.933 103.933 594.067 127.911 509.2 147.893C424.333 167.874 339.467 183.859 254.6 171.87C169.733 159.881 84.8667 119.918 42.4333 99.937L-1.90735e-06 79.9555V32H42.4333C84.8667 32 169.733 32 254.6 32C339.467 32 424.333 32 509.2 32C594.067 32 678.933 32 763.8 32C848.667 32 933.533 32 1018.4 32C1103.27 32 1188.13 32 1230.57 32H1273V127.911Z" fill="#FFDFBF"/>
<path fill-rule="evenodd" clip-rule="evenodd" d="M3 150H45.4333C87.8667 150 172.733 150 257.6 137.143C342.467 124.286 427.333 100.714 512.2 87.8571C597.067 75 681.933 75 766.8 75C851.667 75 936.533 75 1021.4 66.4286C1106.27 57.8571 1191.13 40.7143 1233.57 34.2857L1276 25.7143V0H1233.57C1191.13 0 1106.27 0 1021.4 0C936.533 0 851.667 0 766.8 0C681.933 0 597.067 0 512.2 0C427.333 0 342.467 0 257.6 0C172.733 0 87.8667 0 45.4333 0H3V150Z" fill="#FF9023"/>
</svg>
