<svg width="390" height="53" viewBox="0 0 390 53" fill="none" xmlns="http://www.w3.org/2000/svg">
<path fill-rule="evenodd" clip-rule="evenodd" d="M0 14.6938L13 15.9149C26 17.136 52 19.5782 78 22.0204C104 24.4626 130 26.9047 156 24.4626C182 22.0204 208 14.6938 234 8.58838C260 2.48293 286 -2.40143 312 1.26184C338 4.92511 364 17.136 377 23.2415L390 29.3469V44H377C364 44 338 44 312 44C286 44 260 44 234 44C208 44 182 44 156 44C130 44 104 44 78 44C52 44 26 44 13 44H0V14.6938Z" fill="#FFDFBF"/>
<path fill-rule="evenodd" clip-rule="evenodd" d="M390 23.6938L377 24.9149C364 26.136 338 28.5782 312 31.0204C286 33.4626 260 35.9047 234 33.4626C208 31.0204 182 23.6938 156 17.5884C130 11.4829 104 6.59857 78 10.2618C52 13.9251 26 26.136 13 32.2415L0 38.3469V53H13C26 53 52 53 78 53C104 53 130 53 156 53C182 53 208 53 234 53C260 53 286 53 312 53C338 53 364 53 377 53H390V23.6938Z" fill="#FFF9E2"/>
</svg>
